<?xml version="1.0" encoding="UTF-8"?>
<svg id="Layer_2" data-name="Layer 2" xmlns="http://www.w3.org/2000/svg" viewBox="0 0 826.69 177.48">
  <g id="Layer_1-2" data-name="Layer 1">
    <g id="OG-Admin-white-bg-texual">
      <g>
        <path d="m275.89,128.45c-9.6-.1-17.35-1.85-23.25-5.25-5.9-3.4-10.2-9.12-12.9-17.17-2.7-8.05-4.05-19.02-4.05-32.93s1.37-25.17,4.12-33.23c2.75-8.05,7.12-13.75,13.12-17.1,6-3.35,13.9-5.03,23.7-5.03s17.7,1.68,23.7,5.03c6,3.35,10.37,9.05,13.12,17.1,2.75,8.05,4.12,19.12,4.12,33.23,0,12.2-1.03,22.12-3.07,29.78-2.05,7.65-5.33,13.48-9.83,17.47,2.3,1.6,4.4,3.5,6.3,5.7,1.9,2.2,3.45,4.75,4.65,7.65l-27.75,15.9-12-21.15Zm10.2-55.65c0-8.6-.28-15.17-.82-19.73-.55-4.55-1.5-7.7-2.85-9.45-1.35-1.75-3.28-2.62-5.77-2.62s-4.3.88-5.7,2.62c-1.4,1.75-2.38,4.9-2.92,9.45-.55,4.55-.83,11.13-.83,19.73s.27,15.1.83,19.8c.55,4.7,1.52,7.98,2.92,9.83,1.4,1.85,3.3,2.78,5.7,2.78s4.42-.92,5.77-2.78c1.35-1.85,2.3-5.12,2.85-9.83.55-4.7.82-11.3.82-19.8Z" style="fill: #00af4f; stroke-width: 0px;"/>
        <path d="m388.99,18.95l-4.5,24h-27.6v20.4h24.9l-4.5,24h-20.4v39.6h-29.25V39.5l-8.25-20.55h69.6Z" style="fill: #31399b; stroke-width: 0px;"/>
        <path d="m430.99,65.75v20.85h-36v-20.85h36Z" style="fill: #31399b; stroke-width: 0px;"/>
        <path d="m466.69,112.4l-2.85,14.55h-31.35l21.6-94.5-3.45-14.7h45.3l23.55,109.2h-31.05l-2.85-14.55h-18.9Zm3-23.25h12.75l-6.3-39.3-6.45,39.3Z" style="fill: #444; stroke-width: 0px;"/>
        <path d="m547.84,128.45c-5.5,0-10.03-1.18-13.57-3.53-3.55-2.35-6.35-5.57-8.4-9.67-2.05-4.1-3.5-8.72-4.35-13.88-.85-5.15-1.28-10.58-1.28-16.28,0-16.4,2.57-28.1,7.72-35.1,5.15-7,12.57-10.5,22.28-10.5,4.4,0,9.3.9,14.7,2.7v-24.45l27-4.05v113.25h-22.95l-2.25-6.6c-2.2,2.5-4.95,4.48-8.25,5.93-3.3,1.45-6.85,2.17-10.65,2.17Zm8.85-21c1.1,0,2.35-.2,3.75-.6,1.4-.4,2.9-1.05,4.5-1.95v-43.5c-2.2-.6-4.25-.9-6.15-.9-4.6,0-7.53,2.1-8.77,6.3-1.25,4.2-1.88,10.55-1.88,19.05,0,7.9.6,13.48,1.8,16.73,1.2,3.25,3.45,4.88,6.75,4.88Z" style="fill: #444; stroke-width: 0px;"/>
        <path d="m642.64,69.65c0-6.1-2.3-9.15-6.9-9.15-1.8,0-3.4.55-4.8,1.65v64.8h-27V40.7h22.95l1.95,5.85c5.6-4.7,11.7-7.05,18.3-7.05,3.8,0,7.25.75,10.35,2.25,3.1,1.5,5.65,3.75,7.65,6.75,3.2-3.1,6.57-5.37,10.12-6.82,3.55-1.45,7.12-2.18,10.72-2.18,6.5,0,11.85,2.15,16.05,6.45,4.2,4.3,6.3,10.75,6.3,19.35v61.65h-27v-57.3c0-6.1-2.3-9.15-6.9-9.15-2,0-3.65.5-4.95,1.5,0,.5.02,1.05.08,1.65.05.6.08,1.15.08,1.65v61.65h-27v-57.3Z" style="fill: #444; stroke-width: 0px;"/>
        <path d="m718.84,13.7h28.5v20.4h-28.5V13.7Zm.75,27h27v86.25h-27V40.7Z" style="fill: #444; stroke-width: 0px;"/>
        <path d="m783.49,46.55c5.9-4.7,12.3-7.05,19.2-7.05s12.62,2.15,17.18,6.45c4.55,4.3,6.82,10.75,6.82,19.35v61.65h-27v-57.3c0-6.1-2.75-9.15-8.25-9.15-2.2,0-4.15.55-5.85,1.65v64.8h-27V40.7h22.95l1.95,5.85Z" style="fill: #444; stroke-width: 0px;"/>
      </g>
      <path d="m173.03,0H38.66C17.32,0,0,16.37,0,36.59v74.49c0,20.22,17.32,36.55,38.66,36.55h85.44l18.04,24.55c2.44,3.31,6.43,5.3,10.68,5.31,4.25,0,8.25-1.94,10.7-5.24l19.09-25.69c16.69-4.05,29.04-18.39,29.04-35.48V36.59c0-20.22-17.28-36.59-38.62-36.59Zm-101.69,85.73c-6.96,0-12.6-5.32-12.6-11.9s5.64-11.9,12.6-11.9,12.6,5.33,12.6,11.9-5.64,11.9-12.6,11.9Zm34.5,0c-6.96,0-12.6-5.32-12.6-11.9s5.64-11.9,12.6-11.9,12.6,5.33,12.6,11.9-5.64,11.9-12.6,11.9Zm34.5,0c-6.96,0-12.61-5.32-12.61-11.9s5.64-11.9,12.61-11.9,12.6,5.33,12.6,11.9-5.64,11.9-12.6,11.9Z" style="fill: #2e3192; stroke-width: 0px;"/>
    </g>
  </g>
</svg>