<?xml version="1.0" encoding="UTF-8"?>
<svg id="Layer_2" data-name="Layer 2" xmlns="http://www.w3.org/2000/svg" viewBox="0 0 711 700">
  <g id="Layer_1-2" data-name="Layer 1">
    <g>
      <rect width="711" height="700" style="fill: #2e3192; stroke-width: 0px;"/>
      <path d="m515.23,151.07H206.86c-48.98,0-88.72,39.64-88.72,88.61v180.4c0,48.96,39.76,88.53,88.72,88.53h196.07l41.4,59.46c5.59,8.02,14.75,12.83,24.52,12.85,9.76.02,18.94-4.7,24.55-12.7l43.81-62.23c38.31-9.8,66.64-44.54,66.64-85.92v-180.39c0-48.98-39.65-88.61-88.62-88.61Zm-233.37,207.64c-15.97,0-28.92-12.89-28.92-28.83s12.95-28.82,28.92-28.82,28.92,12.91,28.92,28.82-12.94,28.83-28.92,28.83Zm79.18,0c-15.97,0-28.92-12.89-28.92-28.83s12.95-28.82,28.92-28.82,28.91,12.91,28.91,28.82-12.93,28.83-28.91,28.83Zm79.18,0c-15.98,0-28.93-12.89-28.93-28.83s12.95-28.82,28.93-28.82,28.92,12.91,28.92,28.82-12.94,28.83-28.92,28.83Z" style="fill: #fff; stroke-width: 0px;"/>
    </g>
  </g>
</svg>