<svg width="100" height="100" viewBox="0 0 20 21" fill="none" xmlns="http://www.w3.org/2000/svg">
<g clip-path="url(#clip0_2009_17043)">
<path d="M17.5 0.5H2.5C1.12125 0.5 0 1.62125 0 3V18C0 19.3788 1.12125 20.5 2.5 20.5H17.5C18.8788 20.5 20 19.3788 20 18V3C20 1.62125 18.8788 0.5 17.5 0.5Z" fill="#03A9F4"/>
<path d="M16.9531 6.17239C16.436 6.39904 15.885 6.54927 15.3104 6.62221C15.9015 6.26965 16.3525 5.71562 16.5646 5.04782C16.0136 5.37608 15.4052 5.60794 14.7568 5.73733C14.2336 5.18069 13.4879 4.83594 12.6743 4.83594C11.096 4.83594 9.8253 6.11594 9.8253 7.68512C9.8253 7.9109 9.84442 8.128 9.89136 8.33468C7.52121 8.21918 5.42397 7.0842 4.0151 5.35523C3.76913 5.78161 3.62485 6.26965 3.62485 6.79502C3.62485 7.78151 4.1333 8.65598 4.89119 9.16225C4.43315 9.15357 3.98381 9.02071 3.60312 8.81142C3.60312 8.82011 3.60312 8.8314 3.60312 8.84269C3.60312 10.2269 4.59134 11.3766 5.88723 11.6415C5.65517 11.7049 5.40225 11.7353 5.13977 11.7353C4.95725 11.7353 4.77299 11.7249 4.60003 11.6867C4.96941 12.8147 6.0176 13.644 7.26395 13.6709C6.29398 14.429 5.06241 14.8858 3.72915 14.8858C3.49535 14.8858 3.27111 14.8754 3.04688 14.8467C4.30974 15.6604 5.8064 16.125 7.42039 16.125C12.6665 16.125 15.5347 11.7831 15.5347 8.01945C15.5347 7.89354 15.5303 7.77196 15.5243 7.65126C16.0901 7.25006 16.5655 6.749 16.9531 6.17239Z" fill="white"/>
</g>
<defs>
<clipPath id="clip0_2009_17043">
<rect width="20" height="20" fill="white" transform="translate(0 0.5)"/>
</clipPath>
</defs>
</svg>