<svg width="100" height="100" viewBox="0 0 20 21" fill="none" xmlns="http://www.w3.org/2000/svg">
    <path d="M19.9992 15.4443C19.9992 15.5538 19.9959 15.7913 19.9893 15.9748C19.9732 16.4237 19.9376 17.0029 19.8838 17.2668C19.8029 17.6634 19.6809 18.0377 19.5217 18.3493C19.3333 18.7179 19.0931 19.048 18.8076 19.333C18.5228 19.6174 18.193 19.8567 17.8249 20.0442C17.5117 20.2038 17.135 20.326 16.7362 20.4065C16.4749 20.4593 15.9 20.4942 15.454 20.51C15.2704 20.5166 15.0328 20.5199 14.9237 20.5199L5.07555 20.5183C4.96603 20.5183 4.72857 20.515 4.54512 20.5084C4.09623 20.4923 3.51701 20.4567 3.25309 20.4029C2.85648 20.322 2.48213 20.1999 2.17057 20.0408C1.80197 19.8524 1.47184 19.6122 1.18689 19.3267C0.90252 19.0419 0.663223 18.712 0.475664 18.344C0.316016 18.0308 0.193867 17.6541 0.11334 17.2553C0.0606055 16.994 0.0257031 16.4191 0.00982422 15.973C0.00330078 15.7894 0 15.5519 0 15.4428L0.0015625 5.59461C0.0015625 5.4851 0.00490234 5.24762 0.0114844 5.06416C0.0275977 4.61527 0.0631641 4.03605 0.116973 3.77215C0.197852 3.37555 0.319922 3.00119 0.479121 2.68961C0.667461 2.32104 0.907715 1.99088 1.19316 1.70594C1.47801 1.42158 1.80785 1.18227 2.17588 0.994687C2.4891 0.835078 2.8658 0.71293 3.26465 0.632402C3.52592 0.579648 4.10082 0.544746 4.54684 0.528887C4.73047 0.522344 4.96803 0.519043 5.07709 0.519043L14.9253 0.520625C15.0348 0.520625 15.2723 0.523965 15.4557 0.530547C15.9046 0.54666 16.4838 0.582227 16.7478 0.636035C17.1443 0.716914 17.5187 0.838984 17.8303 0.998184C18.1988 1.18652 18.529 1.42678 18.8139 1.71223C19.0983 1.99707 19.3376 2.32689 19.5252 2.69494C19.6848 3.00816 19.807 3.38484 19.8875 3.78369C19.9402 4.04498 19.9751 4.61986 19.991 5.0659C19.9975 5.24953 20.0008 5.48707 20.0008 5.59617L19.9992 15.4443V15.4443Z" fill="url(#paint0_linear_1042_49932)"/>
    <path d="M15.298 5.25113C13.9439 3.89592 12.1431 3.1492 10.2245 3.14844C6.27131 3.14844 3.05391 6.36461 3.05232 10.3178C3.05182 11.5815 3.38207 12.815 4.00969 13.9022L2.99219 17.6176L6.79424 16.6206C7.84182 17.1918 9.02123 17.4928 10.2216 17.4933H10.2246C14.1773 17.4933 17.395 14.2768 17.3966 10.3235C17.3974 8.40775 16.6521 6.60635 15.298 5.25113ZM10.2246 16.2824H10.2221C9.15246 16.282 8.10332 15.9947 7.18807 15.4518L6.97037 15.3226L4.71418 15.9143L5.31641 13.7152L5.17463 13.4897C4.57791 12.5409 4.26275 11.4443 4.26322 10.3183C4.26451 7.03256 6.93871 4.35938 10.2269 4.35938C11.8191 4.35998 13.3158 4.98068 14.4413 6.10707C15.5668 7.23346 16.1863 8.73074 16.1857 10.3231C16.1844 13.6091 13.5102 16.2824 10.2246 16.2824ZM13.4944 11.8192C13.3152 11.7296 12.4341 11.2961 12.2698 11.2363C12.1056 11.1765 11.9861 11.1467 11.8666 11.326C11.7472 11.5054 11.4038 11.9089 11.2992 12.0285C11.1946 12.148 11.0901 12.163 10.9109 12.0733C10.7317 11.9836 10.1543 11.7945 9.46979 11.1841C8.93707 10.7091 8.57738 10.1224 8.47285 9.94305C8.36832 9.76369 8.46174 9.66676 8.55145 9.57742C8.63205 9.49717 8.73065 9.36818 8.82025 9.26357C8.90984 9.15898 8.93973 9.08422 8.99945 8.96467C9.0592 8.8451 9.02932 8.74047 8.98451 8.6508C8.93973 8.56113 8.58131 7.67934 8.43197 7.32064C8.28652 6.97131 8.13875 7.01857 8.02875 7.01309C7.92434 7.00789 7.80475 7.0068 7.68529 7.0068C7.56584 7.0068 7.37168 7.05162 7.20742 7.23098C7.04316 7.41033 6.58022 7.84375 6.58022 8.72553C6.58022 9.6073 7.22234 10.4592 7.31195 10.5788C7.40156 10.6983 8.57561 12.5079 10.3733 13.2839C10.8009 13.4684 11.1347 13.5787 11.3949 13.6612C11.8242 13.7976 12.2149 13.7783 12.5237 13.7322C12.868 13.6808 13.5839 13.2988 13.7333 12.8804C13.8827 12.4619 13.8827 12.1032 13.8379 12.0285C13.793 11.9537 13.6736 11.9089 13.4944 11.8192Z" fill="white"/>
    <defs>
        <linearGradient id="paint0_linear_1042_49932" x1="10.0004" y1="0.519043" x2="10.0004" y2="20.5199" gradientUnits="userSpaceOnUse">
            <stop stop-color="#61FD7D"/>
            <stop offset="1" stop-color="#2BB826"/>
        </linearGradient>
    </defs>
</svg>