<svg width="100" height="100" viewBox="0 0 20 21" fill="none" xmlns="http://www.w3.org/2000/svg">
    <path d="M17.5 0.5H2.5C1.12125 0.5 0 1.62125 0 3V18C0 19.3788 1.12125 20.5 2.5 20.5H17.5C18.8788 20.5 20 19.3788 20 18V3C20 1.62125 18.8788 0.5 17.5 0.5Z" fill="url(#paint0_linear_1042_49932)"/>
    <path d="M14.375 10.5H11.5625V8C11.5625 7.31 12.435 7.375 13.125 7.375H14.375V4.25H11.875C9.80375 4.25 8.125 5.92875 8.125 8V10.5H5.82031V13.625H8.125V20.5H11.5625V13.625H13.8867L14.375 10.5Z" fill="#FAFAFA"/>
    <defs>
        <linearGradient id="paint0_linear_1042_49932" x1="10" y1="0.5" x2="10" y2="16.8086" gradientUnits="userSpaceOnUse">
            <stop stop-color="#4FAEF8"/>
            <stop offset="1" stop-color="#306EF7"/>
        </linearGradient>
    </defs>
</svg>