<svg width="100" height="100" viewBox="0 0 20 21" fill="none" xmlns="http://www.w3.org/2000/svg">
    <path d="M0 1.96696C0 1.17935 0.662031 0.540039 1.47813 0.540039H18.5219C19.3383 0.540039 20 1.17935 20 1.96696V19.0333C20 19.8212 19.3383 20.46 18.5219 20.46H1.47813C0.662109 20.46 0 19.8213 0 19.0336V1.96673V1.96696Z" fill="#006699"/>
    <path d="M6.07742 17.2101V8.24205H3.08461V17.2101H6.07773H6.07742ZM4.58164 7.01783C5.62508 7.01783 6.27469 6.32919 6.27469 5.46858C6.25516 4.58837 5.62508 3.91895 4.60148 3.91895C3.57719 3.91895 2.9082 4.58837 2.9082 5.4685C2.9082 6.32911 3.55758 7.01775 4.56203 7.01775H4.58141L4.58164 7.01783ZM7.73398 17.2101H10.7266V12.2025C10.7266 11.9348 10.7461 11.6664 10.8252 11.4752C11.0414 10.9395 11.5338 10.3849 12.3608 10.3849C13.4434 10.3849 13.8768 11.2073 13.8768 12.413V17.2101H16.8693V12.0681C16.8693 9.31361 15.393 8.0318 13.4241 8.0318C11.8098 8.0318 11.1008 8.93046 10.7069 9.54253H10.7268V8.24236H7.73414C7.7732 9.08367 7.73391 17.2104 7.73391 17.2104L7.73398 17.2101Z" fill="white"/>
</svg>