<?xml version="1.0" encoding="UTF-8"?>
<svg id="Layer_2" xmlns="http://www.w3.org/2000/svg" viewBox="0 0 841.71 177.48">
  <g id="Layer_1-2">
    <g>
      <g>
        <path d="m272.61,130.04c-9.6-.1-17.35-1.85-23.25-5.25-5.9-3.4-10.2-9.12-12.9-17.17-2.7-8.05-4.05-19.02-4.05-32.93s1.37-25.17,4.12-33.23c2.75-8.05,7.12-13.75,13.12-17.1,6-3.35,13.9-5.03,23.7-5.03s17.7,1.68,23.7,5.03c6,3.35,10.37,9.05,13.12,17.1,2.75,8.05,4.12,19.12,4.12,33.23,0,12.2-1.03,22.13-3.07,29.77-2.05,7.65-5.33,13.48-9.83,17.48,2.3,1.6,4.4,3.5,6.3,5.7,1.9,2.2,3.45,4.75,4.65,7.65l-27.75,15.9-12-21.15Zm10.2-55.65c0-8.6-.28-15.17-.82-19.73-.55-4.55-1.5-7.7-2.85-9.45-1.35-1.75-3.28-2.62-5.77-2.62s-4.3.88-5.7,2.62c-1.4,1.75-2.38,4.9-2.92,9.45-.55,4.55-.83,11.13-.83,19.73s.27,15.1.83,19.8c.55,4.7,1.52,7.98,2.92,9.82,1.4,1.85,3.3,2.78,5.7,2.78s4.42-.92,5.77-2.78c1.35-1.85,2.3-5.12,2.85-9.82.55-4.7.82-11.3.82-19.8Z" style="fill: #00af4f; stroke-width: 0px;"/>
        <path d="m364.26,122.69c-2.8,2.3-5.8,4.1-9,5.4-3.2,1.3-6.4,1.95-9.6,1.95-6.6,0-12.1-2.15-16.5-6.45-4.4-4.3-6.6-10.75-6.6-19.35v-61.95h27v57.3c0,6.1,2.45,9.15,7.35,9.15,1.9,0,3.65-.55,5.25-1.65V42.29h27v86.25h-22.95l-1.95-5.85Z" style="fill: #00af4f; stroke-width: 0px;"/>
        <path d="m400.41,15.29h28.5v20.4h-28.5V15.29Zm.75,27h27v86.25h-27V42.29Z" style="fill: #00af4f; stroke-width: 0px;"/>
        <path d="m438.66,112.04l25.8-48.75h-24.75v-21h57.15v15.9l-26.1,49.35h27.45v21h-59.55v-16.5Z" style="fill: #00af4f; stroke-width: 0px;"/>
        <path d="m572.31,20.54l-4.5,24h-27.6v20.4h24.9l-4.5,24h-20.4v39.6h-29.25V41.09l-8.25-20.55h69.6Z" style="fill: #31399b; stroke-width: 0px;"/>
        <path d="m612.66,130.04c-5.9,0-11.28-.65-16.12-1.95-4.85-1.3-9.03-3.6-12.52-6.9-3.5-3.3-6.2-7.85-8.1-13.65-1.9-5.8-2.85-13.2-2.85-22.2,0-14.6,2.72-25.62,8.17-33.07,5.45-7.45,14.22-11.18,26.33-11.18,11,0,18.97,3.03,23.92,9.08,4.95,6.05,7.42,15.03,7.42,26.92,0,2.8-.1,5.68-.3,8.62-.2,2.95-.55,5.62-1.05,8.03h-35.85c.6,6.1,2.3,10.18,5.1,12.22,2.8,2.05,7.5,3.08,14.1,3.08,2.3,0,4.67-.2,7.12-.6,2.45-.4,4.82-.85,7.12-1.35v20.4c-3.5.7-7.18,1.3-11.02,1.8-3.85.5-7.68.75-11.48.75Zm-4.05-69.15c-4,0-6.35,5.4-7.05,16.2h12.3c0-2.2-.08-4.55-.22-7.05-.15-2.5-.6-4.65-1.35-6.45-.75-1.8-1.98-2.7-3.67-2.7Z" style="fill: #31399b; stroke-width: 0px;"/>
        <path d="m674.91,103.34c0-1.7-1.25-3.35-3.75-4.95l-12.9-8.4c-4.7-3.1-8.1-6.45-10.2-10.05-2.1-3.6-3.15-8.3-3.15-14.1,0-8.3,2.45-14.47,7.35-18.52,4.9-4.05,12.95-6.12,24.15-6.23,4.2,0,8.07.18,11.62.53,3.55.35,7.47.93,11.78,1.72l-2.25,19.95c-3-.4-5.68-.72-8.03-.98-2.35-.25-4.78-.38-7.28-.38-3.6,0-6.2.3-7.8.9-1.6.6-2.4,1.75-2.4,3.45,0,1,.3,1.83.9,2.48.6.65,1.55,1.38,2.85,2.17l13.2,8.55c4.8,3.1,8.25,6.43,10.35,9.97,2.1,3.55,3.15,8.13,3.15,13.73,0,8.9-2.55,15.58-7.65,20.02-5.1,4.45-13.45,6.72-25.05,6.83-5.1,0-9.78-.28-14.03-.83-4.25-.55-8.13-1.27-11.62-2.17l2.25-20.4c7.4,1.1,14.15,1.65,20.25,1.65,5.5,0,8.25-1.65,8.25-4.95Z" style="fill: #31399b; stroke-width: 0px;"/>
        <path d="m745.26,42.29h16.35v20.25h-16.35v37.35c0,2.8.72,4.85,2.17,6.15,1.45,1.3,3.77,1.95,6.98,1.95,1.6,0,3-.08,4.2-.23,1.2-.15,2.2-.32,3-.52v19.95c-2.4.8-4.93,1.47-7.57,2.02-2.65.55-5.33.83-8.03.83-9.2,0-16.12-1.97-20.78-5.92-4.65-3.95-6.97-11.03-6.97-21.23v-40.35h-11.25v-20.25h11.25v-18.9h27v18.9Z" style="fill: #31399b; stroke-width: 0px;"/>
        <path d="m804.66,130.04c-8.9,0-16.08-1.5-21.52-4.5-5.45-3-9.4-7.77-11.85-14.33-2.45-6.55-3.67-15.12-3.67-25.72s1.22-19.15,3.67-25.65c2.45-6.5,6.4-11.25,11.85-14.25,5.45-3,12.62-4.5,21.52-4.5s16.2,1.5,21.6,4.5c5.4,3,9.32,7.75,11.77,14.25,2.45,6.5,3.67,15.05,3.67,25.65s-1.23,19.18-3.67,25.72c-2.45,6.55-6.38,11.33-11.77,14.33-5.4,3-12.6,4.5-21.6,4.5Zm-.15-21.15c3.4,0,5.8-1.82,7.2-5.47,1.4-3.65,2.1-9.57,2.1-17.77s-.7-14.27-2.1-17.93c-1.4-3.65-3.8-5.47-7.2-5.47s-5.62,1.83-6.98,5.47c-1.35,3.65-2.02,9.63-2.02,17.93s.67,14.13,2.02,17.77c1.35,3.65,3.67,5.47,6.98,5.47Z" style="fill: #31399b; stroke-width: 0px;"/>
      </g>
      <g>
        <ellipse cx="71.35" cy="73.01" rx="17" ry="16.5" style="fill: #fff; stroke-width: 0px;"/>
        <ellipse cx="105.35" cy="73.01" rx="17" ry="16.5" style="fill: #fff; stroke-width: 0px;"/>
        <ellipse cx="139.35" cy="73.01" rx="17" ry="16.5" style="fill: #fff; stroke-width: 0px;"/>
      </g>
      <path d="m173.03,0H38.66C17.32,0,0,16.37,0,36.59v74.49c0,20.22,17.32,36.55,38.66,36.55h85.44l18.04,24.55c2.44,3.31,6.43,5.3,10.68,5.31,4.25,0,8.25-1.94,10.7-5.24l19.09-25.69c16.69-4.05,29.04-18.39,29.04-35.48V36.59c0-20.22-17.28-36.59-38.62-36.59Zm-101.69,85.73c-6.96,0-12.6-5.32-12.6-11.9s5.64-11.9,12.6-11.9,12.6,5.33,12.6,11.9-5.64,11.9-12.6,11.9Zm34.5,0c-6.96,0-12.6-5.32-12.6-11.9s5.64-11.9,12.6-11.9,12.6,5.33,12.6,11.9-5.64,11.9-12.6,11.9Zm34.5,0c-6.96,0-12.61-5.32-12.61-11.9s5.64-11.9,12.61-11.9,12.6,5.33,12.6,11.9-5.64,11.9-12.6,11.9Z" style="fill: #2e3192; stroke-width: 0px;"/>
    </g>
  </g>
</svg>